<?xml version="1.0" encoding="utf-8"?>
<!-- Generator: Adobe Illustrator 23.1.0, SVG Export Plug-In . SVG Version: 6.00 Build 0)  -->
<svg version="1.1" id="Calque_1" xmlns="http://www.w3.org/2000/svg" xmlns:xlink="http://www.w3.org/1999/xlink" x="0px" y="0px"
	 viewBox="0 0 1000 1000" style="enable-background:new 0 0 1000 1000;" xml:space="preserve">
<style type="text/css">
	.st0{enable-background:new    ;}
	.st1{fill:#E768B0;}
	.st2{fill:#D11E6E;}
	.st3{fill:#FEFEFE;}
</style>
<g>
	<g>
		<g class="st0">
			<path class="st1" d="M441.3,590c0.1,20.7-9.2,36-26.5,46l-31.9,18.4c-8.5,4.9-15.3,6.2-19.9,3.5l203.4,118.2
				c4.6,2.7,11.4,1.4,19.9-3.5l31.9-18.4c17.3-10,26.6-25.3,26.5-46L441.3,590z"/>
			<g>
				<polygon class="st1" points="644.7,708.2 441.3,590 441,488.4 644.4,606.6 				"/>
			</g>
			<g>
				<path class="st1" d="M493.7,898.6L290.3,780.4c-16-9.3-24.5-31.9-24.6-67.5L469.1,831C469.2,866.7,477.7,889.2,493.7,898.6z"/>
			</g>
			<g>
				<polygon class="st1" points="469.1,831 265.8,712.8 265.6,632.5 468.9,750.7 				"/>
			</g>
			<path class="st2" d="M353.4,572.6c-1.7-1-4.4-0.4-8.1,1.7l-69.2,40c-6.6,3.8-10.6,9.9-10.6,18.3l203.4,118.2
				c0-8.4,4-14.5,10.6-18.3l69.2-40c3.7-2.1,6.3-2.7,8.1-1.7L353.4,572.6z"/>
			<path class="st1" d="M524.7,366c-2.7-1.6-6.3-2.1-10.7-1.6l-158.5,31.8l203.4,118.2l158.5-31.8c4.4-0.5,8,0,10.7,1.6L524.7,366z"
				/>
			<path class="st1" d="M643.8,419.3l-0.2-59.6c0-10-2.2-16.4-6.7-19L433.6,222.5c4.5,2.6,6.6,9,6.7,19l0.2,59.6
				c0,3.8,1,6.2,2.8,7.3l203.4,118.2C644.8,425.6,643.8,423.1,643.8,419.3z"/>
			<g>
				<path class="st1" d="M475.1,636.9L271.7,518.7c-4.4-2.5-6.5-8.1-6.6-16.9L468.5,620C468.6,628.8,470.8,634.4,475.1,636.9z"/>
			</g>
			<g>
				<polygon class="st1" points="468.5,620 265.2,501.9 264.7,321.5 468,439.7 				"/>
			</g>
			<g>
				<g>
					<path class="st2" d="M506.3,100.2l203.4,118.2c-16.2-9.4-40.2-5.2-71.6,12.9L434.6,113.1C466,95,490.1,90.8,506.3,100.2z"/>
				</g>
				<g>
					<polygon class="st2" points="563.5,274.3 360.1,156.2 434.6,113.1 638,231.3 					"/>
				</g>
				<g>
					<path class="st2" d="M468,439.7L264.7,321.5c-0.2-71.8,33.6-129.6,95.4-165.4l203.4,118.2C501.6,310,467.8,367.9,468,439.7z"/>
				</g>
			</g>
			<g>
				<path class="st3" d="M638,231.3c62.5-36.1,95.8-17,96,54.8l0.2,81c0,7.6-3.3,14.1-10.6,18.3l-69.1,39.9
					c-6.7,3.9-10.7,1.6-10.7-6l-0.2-59.6c-0.1-19.9-8.7-25.6-26.7-15.2l-31.9,18.4c-16.6,9.6-26.6,26-26.5,45.9l0.3,105.5
					l158.5-31.8c11.3-1.2,17.3,3.8,17.3,18.3l0.5,176.6c0.2,71.8-32.9,129.3-95.4,165.4l-74.5,43c-61.8,35.7-95.8,17-96-54.8
					l-0.2-80.3c0-8.4,4-14.5,10.6-18.3l69.2-40c7.3-4.2,10.6-2.3,10.7,6.1l0.2,58.8c0.1,20.7,10,24.9,26.7,15.3l31.9-18.4
					c17.3-10,26.6-25.3,26.5-46l-0.3-101.6L486.6,638c-12,2.3-18-3.4-18-17.9L468,439.7c-0.2-71.8,33.6-129.6,95.4-165.4L638,231.3z
					"/>
			</g>
		</g>
	</g>
</g>
</svg>
